<?xml version="1.0" encoding="UTF-8" standalone="no"?>
<!DOCTYPE svg PUBLIC "-//W3C//DTD SVG 1.1//EN" "http://www.w3.org/Graphics/SVG/1.1/DTD/svg11.dtd">
<svg width="100%" height="100%" viewBox="0 0 228 228" version="1.1" xmlns="http://www.w3.org/2000/svg" xmlns:xlink="http://www.w3.org/1999/xlink" xml:space="preserve" xmlns:serif="http://www.serif.com/" style="fill-rule:evenodd;clip-rule:evenodd;stroke-linecap:round;stroke-linejoin:round;stroke-miterlimit:1.5;">
    <g transform="matrix(1,0,0,1,-6.63553,4.34231)">
        <g transform="matrix(0.82911,0,0,1.33061,-6.14838,30.612)">
            <path d="M172.777,52.101C172.777,48.086 167.545,44.826 161.101,44.826L44.035,44.826C37.591,44.826 32.359,48.086 32.359,52.101L32.359,66.652C32.359,70.667 37.591,73.927 44.035,73.927L161.101,73.927C167.545,73.927 172.777,70.667 172.777,66.652L172.777,52.101Z"/>
            <clipPath id="_clip1">
                <path d="M172.777,52.101C172.777,48.086 167.545,44.826 161.101,44.826L44.035,44.826C37.591,44.826 32.359,48.086 32.359,52.101L32.359,66.652C32.359,70.667 37.591,73.927 44.035,73.927L161.101,73.927C167.545,73.927 172.777,70.667 172.777,66.652L172.777,52.101Z"/>
            </clipPath>
            <g clip-path="url(#_clip1)">
                <g transform="matrix(5.01289e-17,1,-1.72969,9.6706e-17,232.073,-27.6888)">
                    <path d="M87.837,39.057C87.837,39.057 91.798,61.175 85.512,69.885C80.891,76.289 72.401,87.684 78.758,99.674C83.99,109.541 89.236,115.312 89.236,115.312C89.236,115.312 89.097,112.405 88.874,108.815C88.687,105.794 88.441,102.29 88.17,99.629C86.254,80.848 85.484,79.752 95.632,70.116C106.135,60.142 87.837,39.057 87.837,39.057Z" style="fill:url(#_Linear2);stroke:black;stroke-width:0.72px;"/>
                </g>
            </g>
        </g>
        <g transform="matrix(1.42367,0,0,1.33061,-25.3881,-29.188)">
            <path d="M172.777,52.101C172.777,48.086 169.73,44.826 165.977,44.826L39.159,44.826C35.406,44.826 32.359,48.086 32.359,52.101L32.359,66.652C32.359,70.667 35.406,73.927 39.159,73.927L165.977,73.927C169.73,73.927 172.777,70.667 172.777,66.652L172.777,52.101Z"/>
            <clipPath id="_clip3">
                <path d="M172.777,52.101C172.777,48.086 169.73,44.826 165.977,44.826L39.159,44.826C35.406,44.826 32.359,48.086 32.359,52.101L32.359,66.652C32.359,70.667 35.406,73.927 39.159,73.927L165.977,73.927C169.73,73.927 172.777,70.667 172.777,66.652L172.777,52.101Z"/>
            </clipPath>
            <g clip-path="url(#_clip3)">
                <g transform="matrix(5.01289e-17,1,-1.72969,9.6706e-17,232.073,-27.6888)">
                    <path d="M87.837,39.057C87.837,39.057 91.798,61.175 85.512,69.885C80.891,76.289 72.401,87.684 78.758,99.674C83.99,109.541 89.236,115.312 89.236,115.312C89.236,115.312 89.097,112.405 88.874,108.815C88.687,105.794 88.441,102.29 88.17,99.629C86.254,80.848 85.484,79.752 95.632,70.116C106.135,60.142 87.837,39.057 87.837,39.057Z" style="fill:url(#_Linear4);stroke:black;stroke-width:0.51px;"/>
                </g>
            </g>
        </g>
        <g transform="matrix(0.519441,0,0,1.33061,3.8723,90.5329)">
            <path d="M172.777,52.101C172.777,48.086 164.426,44.826 154.14,44.826L50.996,44.826C40.71,44.826 32.359,48.086 32.359,52.101L32.359,66.652C32.359,70.667 40.71,73.927 50.996,73.927L154.14,73.927C164.426,73.927 172.777,70.667 172.777,66.652L172.777,52.101Z"/>
            <clipPath id="_clip5">
                <path d="M172.777,52.101C172.777,48.086 164.426,44.826 154.14,44.826L50.996,44.826C40.71,44.826 32.359,48.086 32.359,52.101L32.359,66.652C32.359,70.667 40.71,73.927 50.996,73.927L154.14,73.927C164.426,73.927 172.777,70.667 172.777,66.652L172.777,52.101Z"/>
            </clipPath>
            <g clip-path="url(#_clip5)">
                <g transform="matrix(5.01289e-17,1,-1.72969,9.6706e-17,232.073,-27.6888)">
                    <path d="M87.837,39.057C87.837,39.057 91.798,61.175 85.512,69.885C80.891,76.289 72.401,87.684 78.758,99.674C83.99,109.541 89.236,115.312 89.236,115.312C89.236,115.312 89.097,112.405 88.874,108.815C88.687,105.794 88.441,102.29 88.17,99.629C86.254,80.848 85.484,79.752 95.632,70.116C106.135,60.142 87.837,39.057 87.837,39.057Z" style="fill:url(#_Linear6);stroke:black;stroke-width:0.88px;"/>
                </g>
            </g>
        </g>
    </g>
    <defs>
        <linearGradient id="_Linear2" x1="0" y1="0" x2="1" y2="0" gradientUnits="userSpaceOnUse" gradientTransform="matrix(-6.87189,46.9884,-50.6429,-6.376,91.6096,53.0397)"><stop offset="0" style="stop-color:rgb(255,0,0);stop-opacity:1"/><stop offset="1" style="stop-color:rgb(255,202,0);stop-opacity:1"/></linearGradient>
        <linearGradient id="_Linear4" x1="0" y1="0" x2="1" y2="0" gradientUnits="userSpaceOnUse" gradientTransform="matrix(6.42372,-56.5862,104.722,3.47105,86.0448,105.828)"><stop offset="0" style="stop-color:rgb(255,166,0);stop-opacity:1"/><stop offset="0.44" style="stop-color:rgb(224,116,0);stop-opacity:1"/><stop offset="1" style="stop-color:rgb(153,0,0);stop-opacity:1"/></linearGradient>
        <linearGradient id="_Linear6" x1="0" y1="0" x2="1" y2="0" gradientUnits="userSpaceOnUse" gradientTransform="matrix(6.56786,-51.328,79.656,22.3555,85.4444,101.742)"><stop offset="0" style="stop-color:rgb(255,127,0);stop-opacity:1"/><stop offset="0.2" style="stop-color:rgb(255,76,0);stop-opacity:1"/><stop offset="0.41" style="stop-color:rgb(255,24,0);stop-opacity:1"/><stop offset="1" style="stop-color:rgb(255,0,0);stop-opacity:1"/></linearGradient>
    </defs>
</svg>
